<svg class="uitk-icon uitk-layout-flex-item" aria-label="Stays" role="img" viewBox="0 0 24 24" xmlns="http://www.w3.org/2000/svg" xmlns:xlink="http://www.w3.org/1999/xlink"><title id="lob_hotelsw249w576n1-title">Stays</title><path fill-rule="evenodd" d="M18 4v17a1 1 0 0 1-1 1h-3v-2a1 1 0 0 0-1-1h-2a1 1 0 0 0-1 1v2H7a1 1 0 0 1-1-1V4a1 1 0 0 1 0-2h12a1 1 0 1 1 0 2zM8.5 14a.5.5 0 0 0-.5.5v1c0 .28.22.5.5.5h2a.5.5 0 0 0 .5-.5v-1a.5.5 0 0 0-.5-.5h-2zm0-4a.5.5 0 0 0-.5.5v1c0 .28.22.5.5.5h2a.5.5 0 0 0 .5-.5v-1a.5.5 0 0 0-.5-.5h-2zm0-4a.5.5 0 0 0-.5.5v1c0 .28.22.5.5.5h2a.5.5 0 0 0 .5-.5v-1a.5.5 0 0 0-.5-.5h-2zm5 8a.5.5 0 0 0-.5.5v1c0 .28.22.5.5.5h2a.5.5 0 0 0 .5-.5v-1a.5.5 0 0 0-.5-.5h-2zm0-4a.5.5 0 0 0-.5.5v1c0 .28.22.5.5.5h2a.5.5 0 0 0 .5-.5v-1a.5.5 0 0 0-.5-.5h-2zm0-4a.5.5 0 0 0-.5.5v1c0 .28.22.5.5.5h2a.5.5 0 0 0 .5-.5v-1a.5.5 0 0 0-.5-.5h-2z" clip-rule="evenodd"/></svg>