<svg width="160" height="160" fill="none" xmlns="http://www.w3.org/2000/svg"><path d="M80 155c41.4 0 75-33.6 75-75S121.4 5 80 5 5 38.6 5 80c0 41.5 33.6 75 75 75z" fill="url(#paint0_linear)"/><g clip-path="url(#clip0)"><g clip-path="url(#clip1)" fill="#A6D1FC"><path fill-rule="evenodd" clip-rule="evenodd" d="M104.667 96.667h5v3.549a4.06 4.06 0 00.415-.56c.59-.061.246.632-.013 1.155-.09.182-.169.343-.196.445-.051.13-.122.183-.206.192v2.445c.306-.016.406.431 0 .565v2.355a.611.611 0 00.08-.241c-.021-.602.377-1.121.774-.29.146.289.32.137.51-.029.137-.12.282-.247.431-.221.083.015.168.046.256.078.155.057.315.115.476.088.794-.124.501 1.392-.042.707-.223-.362-.269-.316-.518-.068l-.026.026c-.518.383-.261.478.024.583.303.111.639.234.122.725-.265.151-.204.199-.019.346l.061.049c1.338.872-1.777.997-.627-.083.154-.411-.166-.424-.557-.44-.301-.012-.644-.026-.844-.225-.036-.01-.07-.02-.101-.031v.736c.315-.193.808-.124.875.666-.061.465-.578.458-.875.151v.464c.192.165.407.136.621.107.358-.048.715-.096.965.753.321.243.437-.135.564-.549.155-.503.326-1.059.899-.614.212.242.442.404.637.542.443.312.713.503.22 1.223-.062.125-.062.27.063.332.687.232.832-.235.986-.729.067-.213.134-.431.248-.6.522-.374.857.685.543 1.08-.46 1.018.899 1.184 1.255.997 2.781-.685 1.902 1.225 1.296.664-.637-.449-.799.116-.954.653-.159.556-.31 1.082-.969.427-.051-.05-.077-.156-.104-.266-.05-.208-.104-.431-.335-.336-.378.091-.286.306-.19.53.079.186.16.377-.02.509-.46.56-.46 1.536.502 1.433.44-.189.245-.432.041-.686-.156-.193-.316-.393-.208-.581.099-.164.238-.108.363-.057a.979.979 0 00.097.036c.312.069.273.283.242.451-.024.136-.044.241.134.214.786.111.92-.217 1.1-.657.055-.134.114-.278.197-.423.656-.222.563-.031.418.266-.115.233-.261.532-.105.751.013.514-.366.686-.815.89-.278.126-.581.264-.837.502h-3.658c-.481-.457-.544-1.163.313-1.579.021-.249-.564-1.183-.648-.789.251.561-.293 1.89-.732 1.786-.23-.083-.439.229-.23.374.144.105.275.087.406.07.156-.021.312-.042.493.138l-7.798.001v-20zm5 14.826c.307-.126.61-.179.896.084.723-.378-.392-.808-.896-.897v.813zm4.576 1.331c-.189-.146-1.088-.727-1.506-.603-.439.083.167 1.579.586.997.157-.199.423-.262.649-.315.103-.024.198-.047.271-.079zm-1.569-1.87c.105.208-.334.312-.501.312-.565-.166.292-.54.501-.312zm-1.337 2.921c-.065-.106-.13-.212-.147-.325-.017-.199-.141-.239-.264-.279-.031-.01-.062-.02-.091-.032-.879-.312.313 1.641.648 1.101.036-.17-.055-.318-.146-.465z"/><path d="M114.18 99.74c-.251-.686-.795-.063-.857.415-.021.955 1.003.228.857-.415zM115.518 108.234c1.819-.644.439 1.89-.586 1.724-.648.124-1.484-.81-.815-1.226.326-.081.531.037.691.128.251.144.391.224.71-.626zM112.981 103.291c-.146.195-.286.382-.181.581.543.769-.669 1.33-.606.229-.084-.644-.021-2.534.94-1.579.204.293.021.537-.153.769zM115.434 105.658c-.167.063-.104.312-.062.437.124.258-.051.357-.243.465-.195.11-.406.229-.343.531.523 1.517 2.488-2.118.648-1.433zM122.104 114.132c-.481-.083-1.401.415-1.066.935.752.623 2.509-.395 1.066-.935zM111.106 105.305c.418.021.586-.187.523-.519.565-2.554-2.3.416-.523.519zM116.312 111.577c.544.146 1.38-.685.774-1.038-.732-.374-1.568.582-.774 1.038zM119.7 113.239c-2.3 1.973 0-2.866.02-.062 0 .01-.005.02-.01.031a.075.075 0 00-.01.031zM119.95 115.129c.021-.602-1.066-.955-1.17-.104.146.623.94.914 1.17.104zM113.866 104.371c.502.187.836-.146.857-.706.209-1.101-1.86.415-.857.706zM122.606 111.723c.334-.353.397-.893-.293-.914-1.589.249-.23 1.101.293.914zM120.452 115.752c-.125.311.272.768.669.665 1.568-.644-.272-1.143-.669-.665zM112.863 107.631c0 .52 1.233.914 1.17-.02.021-.769-1.003-.395-1.17.02zM118.382 111.1c.418.104.899-.644.418-.831-.94-.166-1.463.395-.418.831zM119.825 101.671c-.355-.706-1.108.623-.732.976.439.374.941-.602.732-.976zM120.557 111.1c.188-.706-.69-.623-.795-.104.042.997.523 1.142.795.104zM113.992 106.157c1.212.041.125-1.163-.419-.665-.334.499-.271.769.419.665zM119.365 106.385c-.502-.02-.962.873-.251.935.711 0 .92-.789.251-.935zM121.602 109.002c.314-.228.063-.664-.251-.602-1.15.332-.397 1.101.251.602zM117.525 106.718c.586-.042.962-.81.188-.727-.481-.146-.711.623-.188.727zM116.605 101.837c.209-.166.042-.498-.209-.415-.439.104-.188.81.209.415z"/></g><path d="M79.667 43.333C92.5 43.333 103 53.833 103 66.667c0 1-.833 1.666-1.667 1.666h-6.666c-1 0-1.667-.666-1.667-1.666 0-7.334-6-13.334-13.333-13.334-7.334 0-13.334 6-13.334 13.334V80h-10V66.667c0-12.834 10.5-23.334 23.334-23.334z" fill="#A6D1FC"/><path d="M109.667 111.667h-60V80c0-2.833 2.166-5 5-5h50c2.833 0 5 2.167 5 5v31.667z" fill="#3A89F8"/><path d="M116.833 70.5l4.5-2.167-4.5-2.166-2.166-4.5-2.334 4.5L108 68.333l4.333 2.167 2.334 4.5 2.166-4.5z" fill="#FFD500"/><path d="M79.667 96.667c4.142 0 7.5-3.209 7.5-7.167 0-3.958-3.358-7.167-7.5-7.167-4.142 0-7.5 3.209-7.5 7.167 0 3.958 3.358 7.167 7.5 7.167z" fill="#001959"/><path d="M81.333 90H78l-5 15h13.333l-5-15zM104.667 116.667h-50c-2.834 0-5-2.167-5-5h60c0 2.833-2.334 5-5 5z" fill="#001959"/><path d="M107.993 48.344l-3.3 3.3 3.3 3.3 3.299-3.3-3.299-3.3zM118 59.167l2.5-2.5 2.5 2.5-2.5 2.5-2.5-2.5z" fill="#FFD500"/></g><defs><clipPath id="clip0"><path fill="#fff" transform="translate(43 40)" d="M0 0h80v80H0z"/></clipPath><clipPath id="clip1"><path fill="#fff" transform="translate(99.667 96.667)" d="M0 0h23.333v20H0z"/></clipPath><linearGradient id="paint0_linear" x1="80" y1="5.047" x2="80" y2="155.047" gradientUnits="userSpaceOnUse"><stop offset=".161" stop-color="#D5E7FB"/><stop offset=".737" stop-color="#D5E7FB" stop-opacity="0"/></linearGradient></defs></svg>